<?xml version="1.0" encoding="utf-8"?>
<!-- Svg Vector Icons : http://www.onlinewebfonts.com/icon -->
<!DOCTYPE svg PUBLIC "-//W3C//DTD SVG 1.1//EN" "http://www.w3.org/Graphics/SVG/1.1/DTD/svg11.dtd">
<svg version="1.1" xmlns="http://www.w3.org/2000/svg" xmlns:xlink="http://www.w3.org/1999/xlink" x="0px" y="0px" viewBox="0 0 1000 1000" enable-background="new 0 0 1000 1000" xml:space="preserve">
<metadata> Svg Vector Icons : http://www.onlinewebfonts.com/icon </metadata>
<g><g transform="translate(0.000000,512.000000) scale(0.100000,-0.100000)"><path d="M795,4984.8c-323.3-86.1-575.9-344.4-662-671.5c-44-164.5-44-6237.1,0-6401.6c86.1-331,340.5-587.4,669.6-673.5c91.8-23,243-28.7,778.7-28.7h665.8V-3661c0-954.7,0-952.8,112.9-1048.4c70.8-57.4,162.6-80.4,264-61.2c63.1,11.5,191.3,130.1,1058,996.8l985.3,983.4H6879c2429.8,0,2315-5.7,2544.6,116.7c133.9,72.7,300.4,241.1,369.3,376.9c112.9,221.9,107.1,40.2,107.1,3409.4c0,2714.8-3.8,3105.1-28.7,3204.6c-86.1,329.1-342.5,583.5-673.4,669.6C9035.2,5028.8,953.8,5026.9,795,4984.8z M9146.2,4353.4c28.7-21,70.8-63.1,91.8-91.8l40.2-51.7V1112.4V-1985l-40.2-51.7c-21.1-28.7-63.2-70.8-91.8-91.8c-51.6-40.2-63.1-40.2-2389.6-45.9l-2337.9-3.8L3638-2958.9l-778.7-778.7v778.7v778.7l-973.8,5.7c-950.9,5.7-975.7,7.7-1027.4,45.9c-28.7,21-70.8,63.1-91.8,91.8c-40.2,51.7-40.2,55.5-45.9,3097.5c-1.9,1676,0,3072.6,5.7,3107.1c13.4,76.5,93.7,174.1,172.2,208.5c47.8,21,772.9,24.9,4126.8,21l4069.4-3.8L9146.2,4353.4z"/><path d="M3041.1,3151.9c-78.4-34.4-158.8-132-172.2-208.5c-5.7-34.4-9.6-294.6-5.7-581.6c5.7-489.8,7.7-522.3,45.9-572.1c97.6-130.1,101.4-132,562.5-132s464.9,1.9,562.5,132c38.3,49.7,40.2,76.5,40.2,623.7c0,547.2-1.9,574-40.2,623.7c-95.7,128.2-105.2,132-539.5,135.8C3194.2,3176.8,3085.1,3173,3041.1,3151.9z"/><path d="M6102.2,3151.9c-78.4-34.4-158.8-132-172.2-208.5c-5.7-34.4-9.6-294.6-5.7-581.6c5.7-489.8,7.6-522.3,45.9-572.1c97.6-130.1,101.4-132,562.5-132s464.9,1.9,562.5,132c38.3,49.7,40.2,76.5,40.2,623.7c0,547.2-1.9,574-40.2,623.7c-95.7,128.2-105.2,132-539.5,135.8C6255.3,3176.8,6146.2,3173,6102.2,3151.9z"/><path d="M2907.2-83.3c-47.8-45.9-47.8-49.7-47.8-411.3c0-361.6,0-365.4,47.8-411.3l45.9-47.8h2049.1h2049.1l45.9,47.8c47.8,45.9,47.8,49.7,47.8,411.3c0,361.6,0,365.4-47.8,411.3l-45.9,47.8H5002.1H2953.1L2907.2-83.3z"/></g></g>
</svg>