<?xml version="1.0" encoding="utf-8"?>
<!-- Generator: Adobe Illustrator 25.3.0, SVG Export Plug-In . SVG Version: 6.00 Build 0)  -->
<svg version="1.1" id="Layer_1" xmlns="http://www.w3.org/2000/svg" xmlns:xlink="http://www.w3.org/1999/xlink" x="0px" y="0px"
	 viewBox="0 0 421.7 442.8" style="enable-background:new 0 0 421.7 442.8;" xml:space="preserve">
<path d="M421.4,401.9L396,140.3c-2.3-18.3-18-32.1-36.5-32.1h-59.3V88.6C300.2,39.8,260.5,0,210,0c-48.9,0-88.6,39.8-88.6,88.6v19.6
	H62.2c-18.4,0-34.1,13.8-36.5,32.5L0.3,401.4c-1.3,10.5,1.9,21,8.9,28.9c7,7.9,17,12.5,27.6,12.5h348.2c10.6,0,20.6-4.5,27.6-12.5
	S422.7,411.9,421.4,401.9z M151,88.6c0-32.6,26.5-59.1,60.7-59.1c32.6,0,59,26.5,59,59.1v19.6H151V88.6z M390.3,410.8
	c-0.8,0.9-2.6,2.4-5.4,2.4H36.7c-2.8,0-4.6-1.5-5.4-2.4c-0.8-0.9-2.1-2.9-1.7-6.1L55,144.1c0.4-3.6,3.5-6.3,7.1-6.3h59.3v36
	c0,8.2,6.6,14.8,14.8,14.8s14.8-6.6,14.8-14.8v-36h119.7v36c0,8.2,6.6,14.8,14.8,14.8s14.8-6.6,14.8-14.8v-36h59.3
	c3.6,0,6.7,2.7,7.1,5.8L392,405.2C392.4,408,391.1,409.9,390.3,410.8z"/>
</svg>
